<mxfile host="app.diagrams.net" modified="2025-10-20T00:00:00.000Z" agent="Claude Code" version="24.0.0">
  <diagram name="Flujo Petición HTTP" id="flujo-http">
    <mxGraphModel dx="1422" dy="794" grid="1" gridSize="10" guides="1" tooltips="1" connect="1" arrows="1" fold="1" page="1" pageScale="1" pageWidth="850" pageHeight="1100" math="0" shadow="0">
      <root>
        <mxCell id="0" />
        <mxCell id="1" parent="0" />

        <!-- Título -->
        <mxCell id="titulo" value="Flujo de una Petición HTTP en Spring Boot" style="text;html=1;strokeColor=none;fillColor=none;align=center;verticalAlign=middle;whiteSpace=wrap;fontSize=18;fontStyle=1" vertex="1" parent="1">
          <mxGeometry x="175" y="40" width="500" height="40" as="geometry" />
        </mxCell>

        <!-- Cliente -->
        <mxCell id="cliente-box" value="Cliente&#xa;(Navegador/Postman/curl)" style="rounded=1;whiteSpace=wrap;html=1;fillColor=#dae8fc;strokeColor=#6c8ebf;fontSize=12;fontStyle=1" vertex="1" parent="1">
          <mxGeometry x="325" y="100" width="200" height="60" as="geometry" />
        </mxCell>

        <!-- Request -->
        <mxCell id="request-label" value="GET /api/tasks" style="text;html=1;strokeColor=#6c8ebf;fillColor=#dae8fc;align=center;verticalAlign=middle;whiteSpace=wrap;fontSize=11;fontFamily=Courier New;" vertex="1" parent="1">
          <mxGeometry x="560" y="115" width="140" height="30" as="geometry" />
        </mxCell>

        <!-- Arrow 1 -->
        <mxCell id="arrow1" value="" style="endArrow=classic;html=1;strokeWidth=2;strokeColor=#000000" edge="1" parent="1">
          <mxGeometry width="50" height="50" relative="1" as="geometry">
            <mxPoint x="424.5" y="160" as="sourcePoint" />
            <mxPoint x="424.5" y="200" as="targetPoint" />
          </mxGeometry>
        </mxCell>
        <mxCell id="arrow1-label" value="HTTP Request" style="text;html=1;strokeColor=none;fillColor=none;align=center;verticalAlign=middle;whiteSpace=wrap;fontSize=10" vertex="1" parent="1">
          <mxGeometry x="440" y="170" width="100" height="20" as="geometry" />
        </mxCell>

        <!-- Tomcat -->
        <mxCell id="tomcat-box" value="Tomcat Embebido&#xa;(puerto 8080)" style="rounded=1;whiteSpace=wrap;html=1;fillColor=#ffe6cc;strokeColor=#d79b00;fontSize=12;fontStyle=1" vertex="1" parent="1">
          <mxGeometry x="325" y="200" width="200" height="60" as="geometry" />
        </mxCell>

        <!-- Arrow 2 -->
        <mxCell id="arrow2" value="" style="endArrow=classic;html=1;strokeWidth=2;strokeColor=#000000" edge="1" parent="1">
          <mxGeometry width="50" height="50" relative="1" as="geometry">
            <mxPoint x="424.5" y="260" as="sourcePoint" />
            <mxPoint x="424.5" y="300" as="targetPoint" />
          </mxGeometry>
        </mxCell>
        <mxCell id="arrow2-label" value="Enruta la petición" style="text;html=1;strokeColor=none;fillColor=none;align=center;verticalAlign=middle;whiteSpace=wrap;fontSize=10" vertex="1" parent="1">
          <mxGeometry x="440" y="270" width="120" height="20" as="geometry" />
        </mxCell>

        <!-- DispatcherServlet -->
        <mxCell id="dispatcher-box" value="DispatcherServlet&#xa;(Spring MVC)" style="rounded=1;whiteSpace=wrap;html=1;fillColor=#d5e8d4;strokeColor=#82b366;fontSize=12;fontStyle=1" vertex="1" parent="1">
          <mxGeometry x="325" y="300" width="200" height="60" as="geometry" />
        </mxCell>

        <!-- Arrow 3 -->
        <mxCell id="arrow3" value="" style="endArrow=classic;html=1;strokeWidth=2;strokeColor=#000000" edge="1" parent="1">
          <mxGeometry width="50" height="50" relative="1" as="geometry">
            <mxPoint x="424.5" y="360" as="sourcePoint" />
            <mxPoint x="424.5" y="400" as="targetPoint" />
          </mxGeometry>
        </mxCell>
        <mxCell id="arrow3-label" value="Busca @GetMapping" style="text;html=1;strokeColor=none;fillColor=none;align=center;verticalAlign=middle;whiteSpace=wrap;fontSize=10" vertex="1" parent="1">
          <mxGeometry x="440" y="370" width="130" height="20" as="geometry" />
        </mxCell>

        <!-- Controller -->
        <mxCell id="controller-box" value="TaskController&#xa;@GetMapping(&quot;/api/tasks&quot;)" style="rounded=1;whiteSpace=wrap;html=1;fillColor=#f8cecc;strokeColor=#b85450;fontSize=12;fontStyle=1" vertex="1" parent="1">
          <mxGeometry x="325" y="400" width="200" height="60" as="geometry" />
        </mxCell>

        <!-- Arrow 4 -->
        <mxCell id="arrow4" value="" style="endArrow=classic;html=1;strokeWidth=2;strokeColor=#000000" edge="1" parent="1">
          <mxGeometry width="50" height="50" relative="1" as="geometry">
            <mxPoint x="424.5" y="460" as="sourcePoint" />
            <mxPoint x="424.5" y="500" as="targetPoint" />
          </mxGeometry>
        </mxCell>
        <mxCell id="arrow4-label" value="Llama al servicio" style="text;html=1;strokeColor=none;fillColor=none;align=center;verticalAlign=middle;whiteSpace=wrap;fontSize=10" vertex="1" parent="1">
          <mxGeometry x="440" y="470" width="110" height="20" as="geometry" />
        </mxCell>

        <!-- Service -->
        <mxCell id="service-box" value="TaskService&#xa;getAllTasks()" style="rounded=1;whiteSpace=wrap;html=1;fillColor=#fff2cc;strokeColor=#d6b656;fontSize=12;fontStyle=1" vertex="1" parent="1">
          <mxGeometry x="325" y="500" width="200" height="60" as="geometry" />
        </mxCell>

        <!-- Arrow 5 (return) -->
        <mxCell id="arrow5" value="" style="endArrow=classic;html=1;strokeWidth=2;strokeColor=#009900;dashed=1" edge="1" parent="1">
          <mxGeometry width="50" height="50" relative="1" as="geometry">
            <mxPoint x="424.5" y="500" as="sourcePoint" />
            <mxPoint x="424.5" y="460" as="targetPoint" />
          </mxGeometry>
        </mxCell>
        <mxCell id="arrow5-label" value="List&lt;Task&gt;" style="text;html=1;strokeColor=none;fillColor=none;align=center;verticalAlign=middle;whiteSpace=wrap;fontSize=10;fontColor=#009900;fontFamily=Courier New;" vertex="1" parent="1">
          <mxGeometry x="440" y="470" width="80" height="20" as="geometry" />
        </mxCell>

        <!-- Arrow 6 (return) -->
        <mxCell id="arrow6" value="" style="endArrow=classic;html=1;strokeWidth=2;strokeColor=#009900;dashed=1" edge="1" parent="1">
          <mxGeometry width="50" height="50" relative="1" as="geometry">
            <mxPoint x="424.5" y="400" as="sourcePoint" />
            <mxPoint x="424.5" y="360" as="targetPoint" />
          </mxGeometry>
        </mxCell>
        <mxCell id="arrow6-label" value="ResponseEntity" style="text;html=1;strokeColor=none;fillColor=none;align=center;verticalAlign=middle;whiteSpace=wrap;fontSize=10;fontColor=#009900;fontFamily=Courier New;" vertex="1" parent="1">
          <mxGeometry x="440" y="370" width="110" height="20" as="geometry" />
        </mxCell>

        <!-- Arrow 7 (return) -->
        <mxCell id="arrow7" value="" style="endArrow=classic;html=1;strokeWidth=2;strokeColor=#009900;dashed=1" edge="1" parent="1">
          <mxGeometry width="50" height="50" relative="1" as="geometry">
            <mxPoint x="424.5" y="300" as="sourcePoint" />
            <mxPoint x="424.5" y="260" as="targetPoint" />
          </mxGeometry>
        </mxCell>
        <mxCell id="arrow7-label" value="Serializa a JSON" style="text;html=1;strokeColor=none;fillColor=none;align=center;verticalAlign=middle;whiteSpace=wrap;fontSize=10;fontColor=#009900;" vertex="1" parent="1">
          <mxGeometry x="440" y="270" width="110" height="20" as="geometry" />
        </mxCell>

        <!-- Arrow 8 (return) -->
        <mxCell id="arrow8" value="" style="endArrow=classic;html=1;strokeWidth=2;strokeColor=#009900;dashed=1" edge="1" parent="1">
          <mxGeometry width="50" height="50" relative="1" as="geometry">
            <mxPoint x="424.5" y="200" as="sourcePoint" />
            <mxPoint x="424.5" y="160" as="targetPoint" />
          </mxGeometry>
        </mxCell>
        <mxCell id="arrow8-label" value="HTTP Response" style="text;html=1;strokeColor=none;fillColor=none;align=center;verticalAlign=middle;whiteSpace=wrap;fontSize=10;fontColor=#009900;" vertex="1" parent="1">
          <mxGeometry x="440" y="170" width="110" height="20" as="geometry" />
        </mxCell>

        <!-- Response -->
        <mxCell id="response-label" value="200 OK + JSON&#xa;[{&quot;id&quot;:1,&quot;title&quot;:...}]" style="text;html=1;strokeColor=#82b366;fillColor=#d5e8d4;align=left;verticalAlign=middle;whiteSpace=wrap;fontSize=10;fontFamily=Courier New;" vertex="1" parent="1">
          <mxGeometry x="100" y="105" width="180" height="40" as="geometry" />
        </mxCell>

        <!-- Leyenda -->
        <mxCell id="leyenda-box" value="Leyenda" style="rounded=0;whiteSpace=wrap;html=1;fillColor=#f5f5f5;strokeColor=#666666;fontSize=12;fontStyle=1;align=center" vertex="1" parent="1">
          <mxGeometry x="100" y="600" width="650" height="60" as="geometry" />
        </mxCell>
        <mxCell id="leyenda-request" value="Flechas negras sólidas = Request (ida)" style="text;html=1;strokeColor=none;fillColor=none;align=left;verticalAlign=middle;whiteSpace=wrap;fontSize=11" vertex="1" parent="1">
          <mxGeometry x="120" y="615" width="300" height="30" as="geometry" />
        </mxCell>
        <mxCell id="leyenda-response" value="Flechas verdes punteadas = Response (vuelta)" style="text;html=1;strokeColor=none;fillColor=none;align=left;verticalAlign=middle;whiteSpace=wrap;fontSize=11;fontColor=#009900" vertex="1" parent="1">
          <mxGeometry x="430" y="615" width="300" height="30" as="geometry" />
        </mxCell>

      </root>
    </mxGraphModel>
  </diagram>
</mxfile>
